<svg xmlns="http://www.w3.org/2000/svg" xmlns:xlink="http://www.w3.org/1999/xlink" width="500" zoomAndPan="magnify" viewBox="0 0 375 374.999991" height="500" preserveAspectRatio="xMidYMid meet" version="1.0"><defs><clipPath id="81564f7546"><path d="M 57.1875 39 L 318 39 L 318 337.5 L 57.1875 337.5 Z M 57.1875 39 " clip-rule="nonzero"/></clipPath></defs><g clip-path="url(#81564f7546)"><path fill="#5e17eb" d="M 198.804688 42.953125 C 202.777344 46.191406 205.277344 51.074219 206.097656 56.089844 C 206.566406 61.992188 204.957031 66.355469 201.191406 70.859375 C 198.859375 73.371094 195.933594 75.371094 192.671875 76.457031 L 192.671875 125.066406 C 196.316406 122.882812 199.933594 120.664062 203.523438 118.410156 C 207.546875 115.839844 211.648438 113.402344 215.761719 110.976562 C 220.738281 108.03125 225.6875 105.050781 230.597656 101.992188 C 234.90625 99.304688 239.253906 96.683594 243.59375 94.050781 C 243.53125 93.789062 243.464844 93.527344 243.398438 93.257812 C 242.046875 87.53125 242.066406 82.167969 244.984375 76.921875 C 248.453125 71.988281 253.457031 68.921875 259.332031 67.664062 C 264.242188 67.207031 268.835938 68.351562 272.757812 71.367188 C 276.808594 74.933594 279.449219 79.152344 279.8125 84.589844 C 279.917969 90.332031 279.140625 95.242188 275.074219 99.605469 C 271.1875 103.621094 266.296875 105.527344 260.75 105.652344 C 257.011719 105.492188 253.152344 104.460938 250.117188 102.183594 C 249.398438 101.910156 248.589844 102.070312 247.703125 102.664062 C 247.101562 103.074219 246.503906 103.492188 245.910156 103.914062 C 245.195312 104.398438 244.484375 104.878906 243.769531 105.355469 C 243.375 105.621094 242.976562 105.886719 242.570312 106.164062 C 240.164062 107.742188 237.699219 109.226562 235.234375 110.714844 C 234.960938 110.878906 234.6875 111.042969 234.410156 111.210938 C 226.121094 116.230469 217.78125 121.15625 209.433594 126.078125 C 208.628906 126.554688 207.824219 127.03125 207.019531 127.507812 C 205.015625 128.699219 203 129.878906 200.972656 131.039062 C 200.160156 131.503906 199.351562 131.976562 198.542969 132.445312 C 197.507812 133.046875 196.46875 133.644531 195.421875 134.230469 C 194.957031 134.503906 194.492188 134.777344 194.011719 135.058594 C 193.59375 135.296875 193.179688 135.535156 192.753906 135.78125 C 191.476562 136.871094 191.253906 137.816406 190.820312 139.414062 C 190.300781 140.148438 189.683594 140.765625 188.96875 141.265625 C 187.890625 141.421875 186.808594 141.421875 185.726562 141.265625 C 184.375 140.242188 183.5625 139.144531 182.949219 137.5625 L 182.949219 136.175781 C 182.617188 136.050781 182.285156 135.925781 181.941406 135.796875 C 180.640625 135.25 179.472656 134.621094 178.257812 133.902344 C 177.804688 133.636719 177.351562 133.371094 176.882812 133.097656 C 176.402344 132.816406 175.921875 132.53125 175.429688 132.238281 C 174.929688 131.949219 174.429688 131.65625 173.917969 131.351562 C 172.453125 130.492188 170.988281 129.628906 169.527344 128.769531 C 168.820312 128.351562 168.109375 127.9375 167.402344 127.523438 C 164.726562 125.953125 162.054688 124.375 159.382812 122.792969 C 158.558594 122.308594 157.734375 121.820312 156.910156 121.332031 C 156.492188 121.085938 156.074219 120.835938 155.644531 120.582031 C 152.246094 118.574219 148.84375 116.582031 145.4375 114.585938 C 140.140625 111.484375 136.363281 109.257812 134.113281 107.90625 C 133.601562 107.601562 133.09375 107.296875 132.566406 106.984375 C 131.511719 106.335938 130.472656 105.675781 129.4375 105 C 129.164062 104.820312 128.886719 104.644531 128.605469 104.460938 C 127.859375 103.980469 127.121094 103.492188 126.382812 103 C 124.875 102.28125 124.324219 102.296875 122.769531 102.84375 C 122.21875 103.117188 121.675781 103.417969 121.148438 103.742188 C 116.765625 105.988281 111.695312 106.046875 107.03125 104.695312 C 101.753906 102.566406 98.21875 99.636719 95.949219 94.398438 C 93.941406 89.253906 93.917969 83.9375 95.921875 78.773438 C 97.949219 74.402344 101.195312 70.917969 105.628906 68.933594 C 111.058594 66.945312 116.03125 67.363281 121.320312 69.617188 C 125.722656 71.808594 128.84375 75.101562 130.640625 79.699219 C 130.804688 80.121094 130.972656 80.539062 131.144531 80.972656 C 131.628906 82.695312 131.703125 84.292969 131.683594 86.0625 C 131.683594 86.671875 131.6875 87.289062 131.691406 87.910156 C 131.613281 90.160156 131.136719 92.320312 130.640625 94.511719 C 130.976562 94.710938 131.3125 94.90625 131.660156 95.109375 C 132.136719 95.390625 132.617188 95.671875 133.105469 95.957031 C 133.367188 96.109375 133.628906 96.261719 133.898438 96.421875 C 135.378906 97.292969 136.863281 98.160156 138.347656 99.03125 C 141.394531 100.816406 144.441406 102.601562 147.488281 104.378906 C 154.710938 108.59375 161.882812 112.886719 169.015625 117.246094 C 170.34375 118.054688 171.671875 118.859375 173 119.664062 C 173.742188 120.117188 174.484375 120.566406 175.226562 121.015625 C 175.546875 121.207031 175.867188 121.402344 176.195312 121.601562 C 176.496094 121.78125 176.796875 121.964844 177.101562 122.148438 C 177.351562 122.300781 177.597656 122.453125 177.855469 122.609375 C 179.277344 123.535156 180.644531 124.542969 182.023438 125.527344 L 182.023438 76.457031 C 180.191406 75.542969 178.359375 74.625 176.46875 73.679688 C 172.726562 70.96875 169.5625 66.886719 168.699219 62.222656 C 168.125 56.214844 168.867188 51.371094 172.417969 46.398438 C 178.8125 38.863281 190.699219 37.511719 198.804688 42.953125 Z M 194.558594 164.410156 C 192.835938 166.386719 192.152344 167.398438 192.152344 169.980469 C 192.152344 170.472656 192.152344 170.964844 192.152344 171.46875 C 192.152344 172.011719 192.15625 172.554688 192.15625 173.113281 C 192.15625 173.683594 192.15625 174.25 192.15625 174.835938 C 192.15625 176.398438 192.160156 177.960938 192.164062 179.523438 C 192.164062 181.15625 192.167969 182.789062 192.167969 184.421875 C 192.167969 187.515625 192.171875 190.605469 192.175781 193.699219 C 192.179688 197.21875 192.183594 200.738281 192.1875 204.257812 C 192.191406 211.5 192.199219 218.738281 192.210938 225.980469 C 192.496094 225.789062 192.785156 225.597656 193.078125 225.402344 C 193.453125 225.152344 193.828125 224.898438 194.214844 224.640625 C 194.585938 224.394531 194.960938 224.144531 195.34375 223.890625 C 197.191406 222.664062 199.082031 221.527344 201.003906 220.425781 C 201.355469 220.226562 201.707031 220.023438 202.066406 219.820312 C 212.714844 214.113281 225.351562 213.710938 237.113281 213.019531 L 237.113281 151.449219 C 222.214844 149.324219 205.261719 153.316406 194.558594 164.410156 Z M 137.585938 151.453125 L 137.585938 213.019531 C 143.390625 213.476562 149.195312 213.9375 155.175781 214.410156 C 164.449219 216.074219 172.332031 218.945312 180.171875 224.128906 C 180.945312 224.59375 181.714844 225.058594 182.488281 225.519531 C 182.53125 218.160156 182.5625 210.800781 182.582031 203.4375 C 182.59375 200.019531 182.605469 196.605469 182.628906 193.1875 C 182.644531 190.207031 182.660156 187.226562 182.664062 184.246094 C 182.664062 182.667969 182.671875 181.09375 182.683594 179.515625 C 182.699219 177.753906 182.699219 175.988281 182.699219 174.226562 C 182.703125 173.707031 182.710938 173.1875 182.71875 172.652344 C 182.699219 168.792969 181.882812 166.21875 179.335938 163.3125 C 168.074219 152.757812 152.429688 150.101562 137.585938 151.453125 Z M 93.355469 128.292969 C 97.640625 132.316406 99.585938 137 99.796875 142.800781 C 99.703125 147.914062 97.632812 152.335938 94.15625 156.050781 C 92.03125 158.039062 88.777344 160.710938 85.738281 160.710938 C 85.769531 161.0625 85.800781 161.417969 85.832031 161.78125 C 86.066406 164.574219 86.234375 167.355469 86.296875 170.15625 C 86.308594 170.738281 86.324219 171.320312 86.335938 171.921875 C 86.359375 173.109375 86.382812 174.296875 86.398438 175.484375 C 86.570312 182.449219 87.863281 187.246094 92.769531 192.3125 C 96.152344 195.332031 100.132812 197.324219 104.125 199.417969 C 106.65625 200.757812 109.132812 202.1875 111.609375 203.628906 C 112.015625 203.863281 112.421875 204.097656 112.84375 204.34375 C 113.835938 204.917969 114.832031 205.496094 115.828125 206.074219 C 115.824219 205.816406 115.824219 205.554688 115.820312 205.289062 C 115.769531 198.949219 115.730469 192.613281 115.707031 186.277344 C 115.695312 183.214844 115.679688 180.148438 115.652344 177.085938 C 115.628906 174.128906 115.613281 171.171875 115.605469 168.214844 C 115.601562 167.085938 115.59375 165.957031 115.582031 164.828125 C 115.566406 163.25 115.5625 161.671875 115.5625 160.089844 C 115.554688 159.625 115.546875 159.15625 115.539062 158.675781 C 115.554688 156.652344 115.648438 155.457031 116.683594 153.6875 C 117.65625 153.125 119.839844 152.839844 123.234375 152.839844 L 123.234375 228.296875 C 123.996094 228.144531 124.761719 227.992188 125.546875 227.832031 C 126.472656 227.789062 127.394531 227.765625 128.320312 227.757812 C 128.867188 227.753906 129.417969 227.75 129.984375 227.746094 C 130.578125 227.742188 131.175781 227.742188 131.78125 227.738281 C 132.085938 227.738281 132.394531 227.738281 132.707031 227.734375 C 134.339844 227.730469 135.96875 227.726562 137.597656 227.722656 C 138.925781 227.71875 140.25 227.714844 141.578125 227.703125 C 151.875 227.621094 161.960938 227.835938 171.839844 231.074219 C 172.457031 231.234375 173.074219 231.390625 173.691406 231.535156 C 160.546875 221.957031 144.550781 222.742188 128.789062 222.742188 L 128.789062 142.65625 C 142.304688 139.277344 158.769531 141.660156 171.378906 147.285156 C 171.851562 147.492188 172.328125 147.703125 172.816406 147.917969 C 177.914062 150.304688 182.492188 153.703125 186.652344 157.46875 C 188.167969 156.828125 189.335938 155.90625 190.597656 154.863281 C 205.636719 142.441406 223.917969 140.59375 242.789062 142.050781 C 243.632812 142.144531 244.671875 142.347656 245.90625 142.65625 L 245.90625 222.742188 L 227.855469 222.742188 C 218.21875 223.953125 209.417969 225.753906 201.46875 231.535156 C 201.949219 231.386719 202.433594 231.234375 202.933594 231.078125 C 213.390625 227.921875 223.722656 227.628906 234.550781 227.710938 C 235.941406 227.71875 237.328125 227.722656 238.71875 227.722656 C 240.382812 227.726562 242.046875 227.734375 243.714844 227.738281 C 244.027344 227.742188 244.34375 227.742188 244.664062 227.742188 C 245.550781 227.746094 246.433594 227.753906 247.316406 227.757812 C 247.816406 227.761719 248.316406 227.765625 248.832031 227.769531 C 249.660156 227.8125 250.535156 227.988281 251.460938 228.296875 L 251.460938 152.839844 C 254.546875 152.839844 256.570312 153.199219 257.523438 153.921875 C 258.867188 155.953125 258.710938 158.167969 258.667969 160.523438 C 258.667969 161.011719 258.667969 161.5 258.671875 162 C 258.667969 163.609375 258.652344 165.21875 258.632812 166.824219 C 258.628906 167.941406 258.625 169.058594 258.621094 170.175781 C 258.613281 173.113281 258.589844 176.046875 258.566406 178.984375 C 258.542969 181.980469 258.53125 184.980469 258.519531 187.976562 C 258.496094 193.855469 258.457031 199.734375 258.40625 205.613281 C 262.210938 203.539062 266.011719 201.460938 269.804688 199.363281 C 270.074219 199.214844 270.34375 199.066406 270.621094 198.914062 C 276.984375 195.445312 282.324219 190.886719 286.644531 185.246094 C 286.8125 184.910156 286.980469 184.578125 287.15625 184.234375 C 288.648438 179.550781 288.183594 174.09375 288.292969 169.214844 C 288.3125 168.390625 288.335938 167.5625 288.355469 166.738281 C 288.402344 164.726562 288.449219 162.71875 288.496094 160.710938 C 288.222656 160.628906 287.949219 160.546875 287.667969 160.464844 C 282.546875 158.867188 279.078125 155.660156 276.460938 150.988281 C 274.207031 146.429688 274.007812 142.195312 275.304688 137.304688 C 276.84375 132.777344 279.660156 128.832031 283.867188 126.453125 C 288.996094 124.019531 294.597656 123.140625 300.070312 125.066406 C 305.828125 127.617188 308.746094 130.851562 311.179688 136.636719 C 312.582031 141.480469 312.140625 147.476562 310.0625 152.007812 C 307.230469 156.992188 303.113281 159.386719 297.753906 161.171875 C 297.746094 161.75 297.738281 162.324219 297.726562 162.917969 C 297.691406 165.078125 297.652344 167.238281 297.609375 169.398438 C 297.589844 170.328125 297.574219 171.257812 297.558594 172.191406 C 297.429688 180.347656 297.09375 187.613281 292.199219 194.503906 L 292.199219 195.429688 C 292.480469 195.328125 292.765625 195.226562 293.054688 195.125 C 298.433594 193.417969 303.917969 193.167969 309.074219 195.671875 C 312.792969 197.820312 315.339844 200.804688 316.648438 204.960938 C 317.855469 210.4375 317.167969 215.996094 314.21875 220.84375 C 311.8125 224.066406 308.683594 226.570312 304.699219 227.371094 C 298.609375 228.050781 293.292969 227.480469 288.324219 223.609375 C 285.527344 220.953125 283.5625 217.292969 283.3125 213.4375 C 283.265625 209.953125 283.53125 207.019531 284.792969 203.761719 C 284.25 203.386719 283.632812 203.078125 282.941406 202.835938 C 282.308594 203.015625 281.6875 203.308594 281.074219 203.714844 C 280.707031 203.933594 280.335938 204.152344 279.957031 204.378906 C 279.558594 204.621094 279.15625 204.867188 278.746094 205.121094 C 277.878906 205.636719 277.011719 206.152344 276.144531 206.664062 C 275.675781 206.941406 275.210938 207.21875 274.730469 207.507812 C 272.28125 208.941406 269.800781 210.316406 267.316406 211.6875 C 266.488281 212.148438 265.664062 212.605469 264.835938 213.066406 C 262.039062 214.617188 260.050781 215.683594 258.871094 216.261719 C 258.863281 216.769531 258.855469 217.28125 258.851562 217.796875 C 258.824219 219.679688 258.789062 221.566406 258.75 223.453125 C 258.734375 224.265625 258.722656 225.082031 258.710938 225.894531 C 258.695312 227.070312 258.671875 228.242188 258.644531 229.414062 C 258.640625 229.777344 258.636719 230.140625 258.636719 230.515625 C 258.578125 232.625 258.34375 234.035156 257.019531 235.703125 C 255.449219 236.75 254.890625 236.75 253.050781 236.761719 C 252.519531 236.769531 251.988281 236.773438 251.441406 236.78125 C 250.863281 236.78125 250.285156 236.785156 249.691406 236.789062 C 248.773438 236.796875 247.859375 236.808594 246.941406 236.820312 C 245.324219 236.835938 243.707031 236.847656 242.089844 236.859375 C 228.910156 236.40625 216.140625 238.027344 203.785156 241.722656 C 203.488281 241.886719 203.191406 242.050781 202.882812 242.222656 C 200.371094 243.792969 199.136719 245.902344 198.445312 248.761719 C 197.246094 255.949219 198.5 263.816406 198.945312 271.0625 C 199.027344 272.425781 199.105469 273.792969 199.183594 275.15625 C 199.523438 281.398438 200.039062 287.625 200.722656 293.835938 C 200.769531 294.1875 200.816406 294.539062 200.863281 294.898438 C 201.453125 298.628906 203.199219 302.203125 206.097656 304.679688 C 209.707031 306.84375 213.589844 308.203125 217.585938 309.460938 C 222.851562 311.121094 227.96875 312.917969 232.949219 315.324219 C 233.554688 315.605469 234.164062 315.886719 234.773438 316.167969 C 242.027344 319.578125 252.386719 325.148438 255.632812 332.917969 C 255.84375 333.765625 255.84375 334.539062 255.632812 335.230469 C 253.148438 337.484375 250.78125 337.34375 247.542969 337.320312 C 247.007812 337.320312 246.46875 337.324219 245.914062 337.328125 C 244.425781 337.332031 242.9375 337.332031 241.449219 337.324219 C 239.84375 337.320312 238.238281 337.328125 236.628906 337.332031 C 233.484375 337.339844 230.339844 337.339844 227.195312 337.332031 C 224.636719 337.328125 222.082031 337.328125 219.523438 337.332031 C 219.160156 337.332031 218.796875 337.332031 218.421875 337.332031 C 217.683594 337.332031 216.945312 337.332031 216.207031 337.332031 C 209.273438 337.339844 202.34375 337.332031 195.414062 337.324219 C 189.46875 337.316406 183.523438 337.316406 177.574219 337.324219 C 170.667969 337.335938 163.761719 337.339844 156.855469 337.332031 C 156.121094 337.332031 155.386719 337.332031 154.648438 337.332031 C 154.285156 337.332031 153.925781 337.332031 153.550781 337.332031 C 150.996094 337.328125 148.445312 337.332031 145.890625 337.335938 C 142.78125 337.339844 139.667969 337.339844 136.558594 337.332031 C 134.96875 337.324219 133.382812 337.324219 131.792969 337.328125 C 130.074219 337.335938 128.355469 337.328125 126.632812 337.320312 C 126.132812 337.324219 125.625 337.328125 125.109375 337.332031 C 122.859375 337.308594 121.132812 336.929688 119.925781 336.199219 C 119.035156 335.195312 118.636719 334.722656 118.605469 333.378906 C 122.882812 323.1875 136.691406 316.8125 146.1875 312.898438 C 148.550781 311.972656 150.953125 311.175781 153.363281 310.390625 C 153.699219 310.28125 154.039062 310.171875 154.382812 310.058594 C 156.085938 309.5 157.789062 308.953125 159.5 308.421875 C 164.402344 306.863281 168.523438 305.230469 171.28125 300.675781 C 173.835938 295.71875 174.296875 290.128906 174.652344 284.652344 C 174.691406 284.0625 174.730469 283.476562 174.773438 282.871094 C 174.855469 281.628906 174.9375 280.382812 175.015625 279.140625 C 175.136719 277.289062 175.265625 275.4375 175.394531 273.585938 C 175.8125 267.386719 176.113281 261.191406 176.207031 254.980469 C 176.222656 254.414062 176.238281 253.847656 176.253906 253.261719 C 176.277344 249.316406 175.570312 246.214844 172.945312 243.167969 C 169.648438 239.890625 164.851562 239.230469 160.46875 238.394531 C 160.074219 238.316406 159.679688 238.238281 159.269531 238.160156 C 153.164062 237.074219 146.960938 237.070312 140.777344 237.03125 C 139.832031 237.027344 138.886719 237.019531 137.941406 237.011719 C 137.300781 237.007812 136.660156 237.003906 136.023438 237 C 135.703125 236.996094 135.382812 236.996094 135.054688 236.992188 C 133.410156 236.980469 131.765625 236.976562 130.121094 236.976562 C 128.503906 236.976562 126.890625 236.964844 125.273438 236.949219 C 124.371094 236.941406 123.46875 236.945312 122.566406 236.949219 C 119.914062 236.914062 117.925781 236.5 116.609375 235.714844 C 115.535156 233.796875 115.535156 232.300781 115.601562 230.140625 C 115.605469 229.742188 115.609375 229.34375 115.609375 228.933594 C 115.625 227.671875 115.652344 226.40625 115.683594 225.144531 C 115.695312 224.285156 115.703125 223.425781 115.714844 222.566406 C 115.738281 220.464844 115.777344 218.363281 115.828125 216.261719 C 115.417969 216.132812 115.007812 216.003906 114.582031 215.871094 C 113.203125 215.390625 112.003906 214.839844 110.722656 214.140625 C 110.285156 213.902344 109.84375 213.664062 109.394531 213.417969 C 108.929688 213.164062 108.464844 212.90625 107.984375 212.644531 C 107.503906 212.382812 107.019531 212.117188 106.523438 211.847656 C 102.535156 209.664062 98.578125 207.433594 94.636719 205.175781 C 94.21875 204.933594 93.792969 204.695312 93.367188 204.449219 C 92.996094 204.238281 92.628906 204.027344 92.25 203.808594 C 91.582031 203.429688 90.800781 203.105469 89.902344 202.835938 C 89.96875 203.085938 90.039062 203.335938 90.105469 203.589844 C 91.238281 208.367188 91.875 214.570312 89.441406 219.039062 C 86.816406 223.277344 83.128906 226.03125 78.328125 227.371094 C 76.953125 227.5625 75.609375 227.59375 74.222656 227.574219 C 73.855469 227.570312 73.492188 227.566406 73.113281 227.5625 C 68.796875 227.4375 65.660156 226.183594 62.503906 223.195312 C 58.5 218.828125 57.210938 214.574219 57.335938 208.699219 C 57.800781 203.90625 60.28125 200.15625 63.90625 197.097656 C 68.171875 193.914062 72.703125 193.628906 77.867188 194.039062 C 79.476562 194.371094 80.976562 194.816406 82.496094 195.429688 C 82.246094 195.027344 81.992188 194.617188 81.734375 194.207031 C 81.398438 193.648438 81.066406 193.09375 80.730469 192.535156 C 80.566406 192.273438 80.402344 192.011719 80.230469 191.738281 C 77.667969 187.414062 77.191406 182.628906 77.085938 177.691406 C 77.070312 177.179688 77.054688 176.667969 77.039062 176.140625 C 76.898438 170.996094 76.894531 165.851562 76.941406 160.710938 C 76.605469 160.652344 76.269531 160.597656 75.925781 160.542969 C 71.40625 159.515625 67.699219 156.777344 65.222656 152.925781 C 62.472656 147.96875 62.125 141.421875 63.574219 135.941406 C 65.398438 130.964844 68.789062 127.59375 73.554688 125.355469 C 80.078125 122.726562 87.886719 123.894531 93.355469 128.292969 Z M 93.355469 128.292969 " fill-opacity="1" fill-rule="nonzero"/></g></svg>