<svg xmlns="http://www.w3.org/2000/svg" xmlns:xlink="http://www.w3.org/1999/xlink" width="500" zoomAndPan="magnify" viewBox="0 0 375.12 383.03998" height="500" preserveAspectRatio="xMidYMid meet" version="1.0"><defs><clipPath id="7cfa105dd6"><path d="M 37.4375 87 L 287 87 L 287 336.65625 L 37.4375 336.65625 Z M 37.4375 87 " clip-rule="nonzero"/></clipPath><clipPath id="76ff2c99b2"><path d="M 187 37.40625 L 336.6875 37.40625 L 336.6875 188 L 187 188 Z M 187 37.40625 " clip-rule="nonzero"/></clipPath></defs><g clip-path="url(#7cfa105dd6)"><path fill="#5e17eb" d="M 182.074219 301.742188 L 142.171875 301.742188 L 142.171875 276.804688 L 157.136719 276.804688 L 157.136719 286.78125 C 157.136719 289.535156 159.371094 291.769531 162.125 291.769531 C 164.878906 291.769531 167.109375 289.535156 167.109375 286.78125 L 167.109375 276.804688 L 182.074219 276.804688 Z M 212 321.695312 L 112.25 321.695312 L 112.25 311.71875 L 212 311.71875 Z M 52.398438 276.804688 L 132.199219 276.804688 L 132.199219 301.742188 L 107.261719 301.742188 C 104.507812 301.742188 102.273438 303.976562 102.273438 306.730469 L 102.273438 326.679688 C 102.273438 329.433594 104.507812 331.667969 107.261719 331.667969 L 115.171875 331.667969 L 118.699219 335.195312 C 119.632812 336.128906 120.902344 336.65625 122.222656 336.65625 L 132.199219 336.65625 C 133.519531 336.65625 134.789062 336.128906 135.726562 335.195312 L 139.25 331.667969 L 184.996094 331.667969 L 188.523438 335.195312 C 189.457031 336.128906 190.726562 336.65625 192.046875 336.65625 L 202.023438 336.65625 C 203.347656 336.65625 204.613281 336.128906 205.550781 335.195312 L 209.078125 331.667969 L 216.984375 331.667969 C 219.742188 331.667969 221.972656 329.433594 221.972656 326.679688 L 221.972656 306.730469 C 221.972656 303.976562 219.742188 301.742188 216.984375 301.742188 L 192.046875 301.742188 L 192.046875 276.804688 L 271.847656 276.804688 C 280.097656 276.804688 286.8125 270.09375 286.8125 261.84375 L 286.8125 197.007812 L 276.835938 197.007812 L 276.835938 261.84375 C 276.835938 264.59375 274.597656 266.832031 271.847656 266.832031 L 52.398438 266.832031 C 49.648438 266.832031 47.410156 264.59375 47.410156 261.84375 L 47.410156 127.179688 L 177.085938 127.179688 L 177.085938 117.207031 L 47.410156 117.207031 L 47.410156 102.242188 C 47.410156 99.496094 49.648438 97.257812 52.398438 97.257812 L 177.085938 97.257812 L 177.085938 87.28125 L 52.398438 87.28125 C 44.148438 87.28125 37.4375 93.992188 37.4375 102.242188 L 37.4375 261.84375 C 37.4375 270.09375 44.148438 276.804688 52.398438 276.804688 " fill-opacity="1" fill-rule="nonzero"/></g><path fill="#5e17eb" d="M 261.875 97.257812 C 270.125 97.257812 276.835938 103.96875 276.835938 112.21875 C 276.835938 120.46875 270.125 127.179688 261.875 127.179688 C 253.621094 127.179688 246.910156 120.46875 246.910156 112.21875 C 246.910156 103.96875 253.621094 97.257812 261.875 97.257812 Z M 261.875 137.15625 C 275.625 137.15625 286.8125 125.96875 286.8125 112.21875 C 286.8125 98.46875 275.625 87.28125 261.875 87.28125 C 248.125 87.28125 236.9375 98.46875 236.9375 112.21875 C 236.9375 125.96875 248.125 137.15625 261.875 137.15625 " fill-opacity="1" fill-rule="nonzero"/><g clip-path="url(#76ff2c99b2)"><path fill="#5e17eb" d="M 326.710938 122.195312 L 310.746094 122.195312 C 311.402344 118.96875 311.75 115.632812 311.75 112.21875 C 311.75 108.804688 311.402344 105.46875 310.746094 102.242188 L 326.710938 102.242188 Z M 314.773438 151.011719 L 300.667969 165.117188 L 289.359375 153.808594 C 294.953125 150.101562 299.753906 145.296875 303.464844 139.703125 Z M 251.898438 177.054688 L 251.898438 161.089844 C 255.125 161.746094 258.460938 162.09375 261.875 162.09375 C 265.289062 162.09375 268.625 161.746094 271.847656 161.089844 L 271.847656 177.054688 Z M 223.078125 165.117188 L 208.972656 151.011719 L 220.285156 139.703125 C 223.992188 145.296875 228.796875 150.101562 234.390625 153.808594 Z M 197.035156 102.242188 L 216.984375 102.242188 C 219.003906 102.242188 220.820312 101.027344 221.59375 99.164062 L 224.160156 92.96875 C 224.933594 91.105469 224.507812 88.960938 223.078125 87.53125 L 208.972656 73.425781 L 223.078125 59.320312 L 237.1875 73.425781 C 238.613281 74.851562 240.757812 75.277344 242.621094 74.503906 L 248.820312 71.9375 C 250.683594 71.167969 251.898438 69.347656 251.898438 67.332031 L 251.898438 47.382812 L 271.847656 47.382812 L 271.847656 63.347656 C 268.625 62.691406 265.289062 62.34375 261.875 62.34375 L 261.875 72.320312 C 283.875 72.320312 301.773438 90.21875 301.773438 112.21875 C 301.773438 134.21875 283.875 152.117188 261.875 152.117188 C 239.875 152.117188 221.972656 134.21875 221.972656 112.21875 L 212 112.21875 C 212 115.632812 212.34375 118.96875 213.003906 122.195312 L 197.035156 122.195312 Z M 300.667969 59.320312 L 314.773438 73.425781 L 303.464844 84.734375 C 299.753906 79.140625 294.953125 74.335938 289.359375 70.625 Z M 331.699219 92.269531 L 310.09375 92.269531 L 310.078125 92.230469 L 325.355469 76.949219 C 327.304688 75.003906 327.304688 71.847656 325.355469 69.898438 L 304.195312 48.738281 C 302.25 46.792969 299.089844 46.789062 297.140625 48.738281 L 281.863281 64.015625 L 281.824219 64 L 281.824219 42.394531 C 281.824219 39.640625 279.589844 37.40625 276.835938 37.40625 L 246.910156 37.40625 C 244.15625 37.40625 241.921875 39.640625 241.921875 42.394531 L 241.921875 64 L 241.882812 64.015625 L 226.605469 48.738281 C 224.660156 46.792969 221.5 46.792969 219.554688 48.738281 L 198.394531 69.898438 C 196.445312 71.847656 196.445312 75.003906 198.394531 76.949219 L 213.667969 92.230469 L 213.65625 92.269531 L 192.046875 92.269531 C 189.292969 92.269531 187.0625 94.5 187.0625 97.257812 L 187.0625 127.179688 C 187.0625 129.9375 189.292969 132.167969 192.046875 132.167969 L 213.65625 132.167969 L 213.667969 132.207031 L 198.394531 147.488281 C 196.445312 149.433594 196.445312 152.589844 198.394531 154.539062 L 219.554688 175.699219 C 221.5 177.648438 224.660156 177.648438 226.605469 175.699219 L 241.882812 160.421875 L 241.921875 160.4375 L 241.921875 182.042969 C 241.921875 184.796875 244.15625 187.03125 246.910156 187.03125 L 276.835938 187.03125 C 279.589844 187.03125 281.824219 184.796875 281.824219 182.042969 L 281.824219 160.4375 L 281.863281 160.421875 L 297.140625 175.699219 C 299.085938 177.644531 302.246094 177.644531 304.195312 175.699219 L 325.355469 154.539062 C 327.304688 152.589844 327.304688 149.433594 325.355469 147.488281 L 310.078125 132.207031 L 310.09375 132.167969 L 331.699219 132.167969 C 334.453125 132.167969 336.6875 129.9375 336.6875 127.179688 L 336.6875 97.257812 C 336.6875 94.5 334.453125 92.269531 331.699219 92.269531 " fill-opacity="1" fill-rule="nonzero"/></g><path fill="#5e17eb" d="M 52.398438 107.230469 C 52.398438 109.984375 54.632812 112.21875 57.386719 112.21875 C 60.140625 112.21875 62.375 109.984375 62.375 107.230469 C 62.375 104.476562 60.140625 102.242188 57.386719 102.242188 C 54.632812 102.242188 52.398438 104.476562 52.398438 107.230469 " fill-opacity="1" fill-rule="nonzero"/><path fill="#5e17eb" d="M 67.359375 107.230469 C 67.359375 109.984375 69.59375 112.21875 72.347656 112.21875 C 75.101562 112.21875 77.335938 109.984375 77.335938 107.230469 C 77.335938 104.476562 75.101562 102.242188 72.347656 102.242188 C 69.59375 102.242188 67.359375 104.476562 67.359375 107.230469 " fill-opacity="1" fill-rule="nonzero"/><path fill="#5e17eb" d="M 82.324219 107.230469 C 82.324219 109.984375 84.558594 112.21875 87.3125 112.21875 C 90.066406 112.21875 92.296875 109.984375 92.296875 107.230469 C 92.296875 104.476562 90.066406 102.242188 87.3125 102.242188 C 84.558594 102.242188 82.324219 104.476562 82.324219 107.230469 " fill-opacity="1" fill-rule="nonzero"/><path fill="#5e17eb" d="M 72.347656 142.144531 L 57.386719 142.144531 L 57.386719 152.117188 L 72.347656 152.117188 L 72.347656 142.144531 " fill-opacity="1" fill-rule="nonzero"/><path fill="#5e17eb" d="M 87.3125 152.117188 L 122.222656 152.117188 L 122.222656 142.144531 L 87.3125 142.144531 L 87.3125 152.117188 " fill-opacity="1" fill-rule="nonzero"/><path fill="#5e17eb" d="M 167.109375 142.144531 L 132.199219 142.144531 L 132.199219 152.117188 L 167.109375 152.117188 L 167.109375 142.144531 " fill-opacity="1" fill-rule="nonzero"/><path fill="#5e17eb" d="M 72.347656 167.082031 L 57.386719 167.082031 L 57.386719 177.054688 L 72.347656 177.054688 L 72.347656 167.082031 " fill-opacity="1" fill-rule="nonzero"/><path fill="#5e17eb" d="M 87.3125 177.054688 L 107.261719 177.054688 L 107.261719 167.082031 L 87.3125 167.082031 L 87.3125 177.054688 " fill-opacity="1" fill-rule="nonzero"/><path fill="#5e17eb" d="M 117.234375 177.054688 L 152.148438 177.054688 L 152.148438 167.082031 L 117.234375 167.082031 L 117.234375 177.054688 " fill-opacity="1" fill-rule="nonzero"/><path fill="#5e17eb" d="M 72.347656 192.019531 L 57.386719 192.019531 L 57.386719 201.992188 L 72.347656 201.992188 L 72.347656 192.019531 " fill-opacity="1" fill-rule="nonzero"/><path fill="#5e17eb" d="M 87.3125 201.992188 L 147.160156 201.992188 L 147.160156 192.019531 L 87.3125 192.019531 L 87.3125 201.992188 " fill-opacity="1" fill-rule="nonzero"/><path fill="#5e17eb" d="M 192.046875 192.019531 L 157.136719 192.019531 L 157.136719 201.992188 L 192.046875 201.992188 L 192.046875 192.019531 " fill-opacity="1" fill-rule="nonzero"/><path fill="#5e17eb" d="M 72.347656 216.957031 L 57.386719 216.957031 L 57.386719 226.929688 L 72.347656 226.929688 L 72.347656 216.957031 " fill-opacity="1" fill-rule="nonzero"/><path fill="#5e17eb" d="M 87.3125 226.929688 L 107.261719 226.929688 L 107.261719 216.957031 L 87.3125 216.957031 L 87.3125 226.929688 " fill-opacity="1" fill-rule="nonzero"/><path fill="#5e17eb" d="M 172.097656 216.957031 L 117.234375 216.957031 L 117.234375 226.929688 L 172.097656 226.929688 L 172.097656 216.957031 " fill-opacity="1" fill-rule="nonzero"/><path fill="#5e17eb" d="M 57.386719 251.867188 L 72.347656 251.867188 L 72.347656 241.894531 L 57.386719 241.894531 L 57.386719 251.867188 " fill-opacity="1" fill-rule="nonzero"/><path fill="#5e17eb" d="M 87.3125 251.867188 L 137.1875 251.867188 L 137.1875 241.894531 L 87.3125 241.894531 L 87.3125 251.867188 " fill-opacity="1" fill-rule="nonzero"/><path fill="#5e17eb" d="M 177.085938 241.894531 L 147.160156 241.894531 L 147.160156 251.867188 L 177.085938 251.867188 L 177.085938 241.894531 " fill-opacity="1" fill-rule="nonzero"/><path fill="#5e17eb" d="M 162.125 177.054688 L 182.074219 177.054688 L 182.074219 167.082031 L 162.125 167.082031 L 162.125 177.054688 " fill-opacity="1" fill-rule="nonzero"/></svg>