<svg xmlns="http://www.w3.org/2000/svg" xmlns:xlink="http://www.w3.org/1999/xlink" width="500" zoomAndPan="magnify" viewBox="0 0 375.12 383.03998" height="500" preserveAspectRatio="xMidYMid meet" version="1.0"><defs><clipPath id="98822264eb"><path d="M 37.4375 38 L 336 38 L 336 341 L 37.4375 341 Z M 37.4375 38 " clip-rule="nonzero"/></clipPath></defs><g clip-path="url(#98822264eb)"><path fill="#5e17eb" d="M 113.855469 226.230469 C 112.328125 228.3125 111.9375 230.824219 111.351562 233.289062 C 110.59375 236.300781 109.503906 238.316406 107.332031 240.5 C 107.054688 240.789062 106.777344 241.074219 106.492188 241.367188 C 101.472656 246.066406 95.59375 247.519531 88.890625 247.320312 C 88.234375 247.289062 87.574219 247.253906 86.894531 247.21875 C 84.742188 247.421875 83.945312 247.996094 82.433594 249.507812 C 81.601562 251.175781 81.722656 252.429688 81.90625 254.273438 C 82.964844 256.117188 84.089844 257.296875 86.144531 257.984375 C 94.816406 258.667969 103.617188 256.835938 110.578125 251.390625 C 117.199219 245.726562 121.886719 238.84375 122.925781 230.074219 C 122.628906 227.796875 121.796875 227.085938 120.046875 225.667969 C 117.757812 224.523438 115.859375 224.691406 113.855469 226.230469 Z M 144.945312 224.078125 C 144.230469 225.609375 143.820312 227.226562 143.355469 228.847656 C 140.597656 237.773438 136.300781 242.433594 128.558594 247.257812 C 123.210938 250.597656 120.230469 254.902344 118.757812 261.09375 C 117.492188 269.671875 118.441406 278.675781 123.226562 286.058594 C 128.054688 292.441406 135.875 298.75 143.886719 300.363281 C 146.527344 300.554688 148.144531 300.453125 150.242188 298.773438 C 151.476562 297.074219 151.554688 295.535156 151.304688 293.476562 C 149.769531 291.039062 148.046875 290.179688 145.410156 289.273438 C 139.433594 287.027344 133.855469 284.253906 130.988281 278.195312 C 128.667969 272.011719 128.128906 266.011719 130.503906 259.753906 C 131.859375 257.242188 133.898438 255.933594 136.273438 254.441406 C 139.453125 252.355469 142.234375 250.050781 144.945312 247.390625 C 145.289062 247.050781 145.632812 246.714844 145.988281 246.367188 C 150.746094 241.339844 153.832031 233.84375 154.21875 226.925781 C 154.136719 225.714844 153.71875 224.6875 152.960938 223.847656 C 150.296875 221.890625 147.480469 221.820312 144.945312 224.082031 Z M 81.308594 131.703125 C 80.234375 133.644531 79.949219 134.5 80.316406 136.671875 C 80.671875 137.613281 81.203125 138.496094 81.90625 139.320312 C 83.0625 139.789062 84.308594 140.152344 85.648438 140.410156 C 86.367188 140.582031 87.085938 140.757812 87.804688 140.933594 C 88.480469 141.101562 89.15625 141.265625 89.851562 141.4375 C 94.71875 142.875 98.496094 145.234375 101.082031 149.710938 C 103.777344 154.730469 105.636719 159.933594 106.757812 165.519531 C 107.894531 171.148438 109.109375 175.671875 113.359375 179.8125 C 113.820312 180.257812 114.277344 180.707031 114.75 181.167969 C 114.75 182.226562 114.503906 183.042969 114.007812 183.613281 C 108.730469 188.152344 101.996094 192.421875 94.699219 191.929688 C 89.421875 191.160156 84.773438 189.792969 79.902344 187.65625 C 77.535156 186.660156 75.992188 186.207031 73.429688 186.996094 C 71.738281 188.183594 71.363281 188.925781 70.8125 190.933594 C 70.777344 193.144531 71.023438 193.75 72.371094 195.472656 C 73.648438 196.347656 75.007812 197 76.410156 197.65625 C 76.789062 197.839844 77.167969 198.023438 77.5625 198.210938 C 80.648438 199.722656 83.863281 200.75 87.203125 201.296875 C 87.058594 201.734375 86.910156 202.167969 86.757812 202.617188 C 84.542969 209.453125 83.347656 217.484375 85.085938 224.609375 C 86.019531 226.269531 86.921875 227.503906 88.261719 228.84375 C 90.503906 229.019531 92.621094 228.667969 94.621094 227.785156 C 95.3125 226.398438 95.183594 225.421875 95.144531 223.871094 C 95.003906 215.65625 95.535156 209.546875 96.738281 205.535156 C 96.851562 205.117188 96.964844 204.703125 97.082031 204.273438 C 97.304688 203.453125 97.546875 202.640625 97.796875 201.828125 C 98.414062 201.855469 99.027344 201.882812 99.660156 201.914062 C 102.054688 201.910156 103.964844 201.347656 106.175781 200.46875 C 106.542969 200.328125 106.910156 200.183594 107.289062 200.035156 C 112.378906 197.980469 116.4375 195.046875 120.425781 191.292969 C 121.667969 190.148438 122.957031 189.09375 124.285156 188.054688 C 124.644531 188.226562 125.003906 188.398438 125.375 188.578125 C 131.617188 191.507812 137.316406 192.910156 144.21875 192.953125 C 144.660156 192.964844 145.101562 192.976562 145.554688 192.988281 C 148.085938 193.003906 149.796875 192.902344 151.832031 191.234375 C 152.960938 189.542969 153.050781 188.53125 153.136719 186.535156 C 152.75 184.746094 152.148438 183.976562 150.773438 182.757812 C 149.109375 182.386719 147.472656 182.414062 145.773438 182.425781 C 135.980469 182.1875 127.589844 179.363281 120.578125 172.164062 C 117.929688 168.910156 117.296875 165.566406 116.636719 161.5 C 114.71875 151.019531 110.441406 142.285156 101.777344 135.660156 C 98.195312 133.210938 94.566406 131.910156 90.382812 130.839844 C 90.019531 130.742188 89.65625 130.640625 89.285156 130.539062 C 86.5 129.921875 83.386719 129.425781 81.308594 131.703125 Z M 133.820312 73.101562 C 132.601562 75.042969 132.617188 76.804688 132.972656 79.003906 C 133.664062 81.136719 135.640625 81.929688 137.464844 83 C 141.753906 86.175781 144.828125 91.152344 145.644531 96.445312 C 146.285156 102.542969 145.277344 107.238281 141.769531 112.300781 C 140.453125 113.847656 139.085938 115.238281 137.53125 116.539062 C 135.964844 115.84375 135.007812 115.140625 133.886719 113.859375 C 129.804688 109.671875 122.707031 104.832031 116.785156 104.242188 C 115.144531 104.378906 114.230469 104.878906 112.960938 105.910156 C 111.519531 107.746094 111.34375 108.910156 111.574219 111.242188 C 112.679688 113.359375 113.917969 114.058594 116.074219 114.851562 C 125.125 118.191406 130.992188 124.921875 134.933594 133.449219 C 136.472656 136.992188 137.40625 140.585938 138.027344 144.382812 C 138.359375 146.175781 138.546875 146.6875 139.78125 148.125 C 141.5625 149.015625 142.449219 149.214844 144.417969 148.855469 C 146.230469 147.75 147.4375 146.675781 148.125 144.617188 C 148.320312 138.578125 146.730469 132.804688 143.753906 127.550781 C 143.488281 126.921875 143.371094 126.253906 143.40625 125.546875 C 144.078125 124.066406 145.046875 123.359375 146.304688 122.332031 C 152.289062 117.085938 156.179688 110.253906 156.707031 102.1875 C 156.847656 92.140625 153.574219 83.5625 146.535156 76.277344 C 144.035156 74.050781 141.144531 71.808594 137.761719 71.3125 C 136.09375 71.570312 135.148438 72.058594 133.820312 73.101562 Z M 165.605469 41.84375 C 166.097656 42.105469 166.597656 42.371094 167.097656 42.636719 C 173.394531 46.289062 177.457031 51.441406 179.910156 58.265625 C 180.488281 60.539062 180.515625 62.761719 180.507812 65.089844 C 180.507812 65.511719 180.511719 65.929688 180.511719 66.363281 C 180.511719 67.773438 180.511719 69.179688 180.511719 70.589844 C 180.511719 71.609375 180.511719 72.628906 180.515625 73.648438 C 180.519531 76.453125 180.519531 79.257812 180.515625 82.0625 C 180.515625 85.085938 180.519531 88.109375 180.523438 91.128906 C 180.527344 97.054688 180.527344 102.980469 180.527344 108.902344 C 180.527344 113.71875 180.53125 118.535156 180.53125 123.347656 C 180.535156 134.777344 180.539062 146.199219 180.539062 157.628906 C 180.539062 157.992188 180.539062 158.359375 180.539062 158.734375 C 180.539062 160.585938 180.539062 162.441406 180.539062 164.292969 C 180.539062 164.660156 180.539062 165.03125 180.539062 165.40625 C 180.539062 166.152344 180.539062 166.894531 180.539062 167.636719 C 180.539062 179.210938 180.542969 190.785156 180.550781 202.355469 C 180.558594 215.359375 180.5625 228.359375 180.5625 241.363281 C 180.5625 248.246094 180.5625 255.128906 180.570312 262.015625 C 180.574219 267.875 180.574219 273.738281 180.570312 279.597656 C 180.570312 282.589844 180.570312 285.582031 180.574219 288.570312 C 180.578125 291.308594 180.578125 294.046875 180.574219 296.785156 C 180.570312 297.777344 180.574219 298.765625 180.574219 299.757812 C 180.605469 310.78125 178.472656 319.574219 170.894531 327.953125 C 164.390625 334.25 155.964844 336.667969 147.050781 336.574219 C 138.980469 336.300781 131.386719 333.859375 125.347656 328.4375 C 124.976562 328.109375 124.605469 327.785156 124.222656 327.445312 C 122.152344 325.503906 121.039062 324.035156 120.015625 321.386719 C 119.558594 320.421875 118.859375 319.59375 117.929688 318.902344 C 114.972656 318.058594 111.871094 317.917969 108.816406 317.644531 C 98.878906 316.714844 90.660156 310.597656 84.375 303.125 C 77.804688 294.324219 75.617188 284.148438 76.078125 273.34375 C 75.777344 273.273438 75.476562 273.199219 75.164062 273.128906 C 68.609375 271.386719 63.34375 268.074219 58.597656 263.277344 C 58.230469 262.925781 57.859375 262.574219 57.480469 262.214844 C 52.933594 257.582031 49.964844 251.027344 48.53125 244.738281 C 48.445312 244.394531 48.359375 244.050781 48.269531 243.695312 C 47.574219 240.835938 47.269531 238.140625 47.273438 235.203125 C 47.273438 234.773438 47.273438 234.335938 47.273438 233.898438 C 47.367188 228.78125 48.460938 223.742188 50.355469 218.988281 C 50.695312 217.753906 50.453125 216.625 49.628906 215.601562 C 49.117188 215.0625 48.597656 214.535156 48.070312 214.011719 C 40.339844 205.636719 37.476562 195.21875 37.863281 183.9375 C 38.523438 173.1875 43.625 163.296875 51.179688 155.742188 C 50.800781 153.632812 50.3125 151.605469 49.691406 149.554688 C 46.613281 138.429688 48.296875 126.910156 53.757812 116.875 C 58.890625 107.902344 67.1875 101.875 76.964844 98.84375 C 77.785156 98.632812 78.550781 98.527344 79.257812 98.527344 C 79.238281 97.875 79.21875 97.222656 79.203125 96.550781 C 78.957031 84.5 82.570312 75.398438 90.953125 66.65625 C 98.222656 59.695312 107.925781 56.28125 117.898438 56.125 C 118.257812 56.132812 118.617188 56.140625 118.988281 56.148438 C 119.128906 55.757812 119.269531 55.367188 119.414062 54.96875 C 120.449219 52.574219 122.089844 50.71875 123.757812 48.730469 C 124.023438 48.40625 124.289062 48.082031 124.5625 47.75 C 130.351562 41.332031 139.019531 38.71875 147.375 38.175781 C 153.726562 37.980469 159.988281 38.75 165.605469 41.84375 Z M 214.144531 311.753906 C 212.453125 314.355469 211.957031 316.308594 212.226562 319.433594 C 213.335938 322.820312 214.945312 324.742188 217.855469 326.75 C 221.128906 327.90625 224.570312 327.964844 227.785156 326.550781 C 230.40625 325.046875 231.941406 322.792969 232.886719 319.964844 C 233.171875 316.601562 232.714844 314.28125 230.765625 311.488281 C 228.917969 309.539062 226.824219 307.980469 224.136719 307.582031 C 219.707031 307.476562 217.183594 308.554688 214.144531 311.753906 Z M 207.753906 54.492188 C 205.503906 57.050781 205.085938 59.378906 205.175781 62.738281 C 205.496094 65.410156 206.371094 67.453125 208.484375 69.164062 C 211.3125 70.984375 213.570312 71.792969 216.992188 71.511719 C 220.613281 70.308594 222.703125 68.289062 224.574219 64.988281 C 225.4375 61.617188 225.289062 58.570312 223.554688 55.507812 C 221.777344 53.21875 219.324219 51.917969 216.496094 51.378906 C 213.175781 51.164062 210.171875 52.214844 207.753906 54.492188 Z M 227.421875 42.738281 C 232.414062 46.3125 235.675781 51 237.023438 57.007812 C 237.054688 57.601562 237.089844 58.191406 237.125 58.796875 C 237.144531 59.160156 237.164062 59.523438 237.183594 59.894531 C 237.394531 66.59375 235.230469 73.15625 230.605469 78.117188 C 227.910156 80.542969 225.195312 82.058594 221.761719 83.164062 C 221.777344 83.632812 221.792969 84.105469 221.808594 84.582031 C 221.960938 89.023438 222.070312 93.464844 222.144531 97.90625 C 222.183594 100.191406 222.234375 102.472656 222.320312 104.753906 C 222.726562 115.964844 221.675781 122.957031 219.167969 125.734375 C 217.90625 126.859375 216.617188 127.820312 215.183594 128.707031 C 214.046875 129.445312 213.265625 130.351562 212.421875 131.40625 C 211.390625 132.691406 210.339844 133.757812 209.101562 134.855469 C 205.800781 137.867188 203.742188 140.386719 203.453125 144.949219 C 203.386719 146.707031 203.394531 148.457031 203.414062 150.21875 C 203.402344 151.191406 203.386719 152.164062 203.367188 153.136719 C 203.328125 155.765625 203.328125 158.390625 203.335938 161.015625 C 203.34375 163.214844 203.328125 165.417969 203.316406 167.617188 C 203.28125 172.816406 203.28125 178.011719 203.304688 183.210938 C 203.324219 188.550781 203.292969 193.890625 203.230469 199.234375 C 203.175781 203.839844 203.160156 208.445312 203.171875 213.046875 C 203.179688 215.789062 203.171875 218.53125 203.132812 221.273438 C 202.601562 229.699219 204.015625 237.558594 207.371094 244.847656 C 208.871094 246.125 210.421875 247.191406 212.117188 248.203125 C 213.820312 249.335938 215.160156 250.75 216.566406 252.230469 C 217.503906 253.199219 218.480469 254.070312 219.507812 254.9375 C 221.46875 256.628906 223.328125 258.414062 225.171875 260.234375 C 225.453125 260.511719 225.734375 260.785156 226.027344 261.070312 C 227.714844 262.753906 228.597656 263.808594 228.710938 266.25 C 228.710938 266.800781 228.707031 267.351562 228.707031 267.921875 C 228.707031 268.546875 228.707031 269.179688 228.707031 269.816406 C 228.703125 270.492188 228.703125 271.167969 228.699219 271.863281 C 228.699219 272.554688 228.695312 273.246094 228.695312 273.960938 C 228.695312 275.796875 228.6875 277.632812 228.683594 279.46875 C 228.675781 281.34375 228.675781 283.21875 228.671875 285.09375 C 228.667969 288.769531 228.65625 292.449219 228.644531 296.125 C 229.140625 296.199219 229.636719 296.273438 230.144531 296.347656 C 235.003906 297.242188 239.125 301.210938 241.890625 305.132812 C 245.523438 311.214844 246.203125 317.546875 244.59375 324.34375 C 242.964844 329.863281 239.238281 334.625 234.21875 337.492188 C 228.410156 340.574219 222.515625 341.636719 216.0625 339.960938 C 209.894531 337.917969 204.851562 333.964844 201.726562 328.226562 C 199.070312 322.410156 198.660156 316.371094 200.546875 310.25 C 203.015625 303.925781 207.257812 299.664062 213.285156 296.65625 C 214.339844 296.292969 215.398438 295.941406 216.460938 295.597656 C 217.769531 285.132812 217.109375 275.054688 214.488281 265.359375 C 212.617188 263.316406 210.53125 261.75 208.15625 260.335938 C 206.128906 259.082031 204.433594 257.476562 202.6875 255.867188 C 202.382812 255.585938 202.078125 255.308594 201.761719 255.019531 C 200.609375 253.957031 199.464844 252.890625 198.320312 251.820312 C 198.039062 251.558594 197.757812 251.296875 197.46875 251.027344 C 197.222656 250.800781 196.980469 250.570312 196.726562 250.335938 C 196.0625 249.714844 195.214844 249.074219 194.179688 248.414062 C 192.699219 247.167969 192.625 246.871094 192.207031 244.820312 C 192.183594 244.007812 192.175781 243.191406 192.183594 242.378906 C 192.175781 241.929688 192.164062 241.476562 192.15625 241.015625 C 192.132812 239.507812 192.128906 238 192.128906 236.488281 C 192.113281 235.40625 192.101562 234.328125 192.085938 233.246094 C 192.046875 230.304688 192.03125 227.363281 192.019531 224.421875 C 192.015625 222.582031 192.003906 220.742188 191.992188 218.90625 C 191.949219 212.476562 191.925781 206.050781 191.917969 199.625 C 191.910156 193.648438 191.855469 187.675781 191.785156 181.699219 C 191.726562 176.558594 191.699219 171.421875 191.695312 166.28125 C 191.695312 163.214844 191.679688 160.152344 191.628906 157.085938 C 191.582031 154.195312 191.578125 151.308594 191.605469 148.417969 C 191.609375 147.367188 191.597656 146.3125 191.570312 145.257812 C 191.433594 139.808594 191.804688 136.019531 195.542969 131.839844 C 196.988281 130.375 198.484375 128.980469 200.023438 127.613281 C 201.445312 126.28125 202.699219 124.832031 203.949219 123.335938 C 204.859375 122.308594 205.84375 121.40625 206.863281 120.488281 C 209.449219 117.511719 209.03125 113.789062 208.992188 110.070312 C 208.996094 109.289062 209.003906 108.511719 209.011719 107.734375 C 209.03125 105.699219 209.023438 103.667969 209.015625 101.632812 C 209.007812 99.550781 209.023438 97.46875 209.039062 95.386719 C 209.058594 91.316406 209.058594 87.242188 209.042969 83.167969 C 208.632812 83.09375 208.222656 83.015625 207.800781 82.941406 C 203.488281 82.011719 199.507812 78.640625 196.859375 75.222656 C 192.988281 68.585938 191.886719 61.761719 193.59375 54.1875 C 196.203125 47.507812 200.730469 43.410156 207 40.207031 C 213.734375 37.433594 221.433594 39.085938 227.421875 42.742188 Z M 303.9375 245.898438 C 303.085938 248.023438 302.984375 249.898438 303.34375 252.15625 C 304.503906 254.476562 305.675781 255.972656 308.109375 256.925781 C 310.402344 257.308594 312.457031 257.445312 314.539062 256.304688 C 317.046875 254.265625 318.023438 252.5 318.375 249.273438 C 318.085938 246.527344 316.976562 245.019531 314.929688 243.214844 C 310.632812 241.535156 306.949219 242.382812 303.9375 245.898438 Z M 303.34375 162.628906 C 301.847656 165.136719 300.925781 167.332031 301.457031 170.269531 C 302.332031 173.636719 303.445312 175.621094 306.425781 177.558594 C 308.871094 178.945312 311.125 179.5625 313.9375 179.050781 C 317.460938 178.035156 319.878906 176.308594 321.882812 173.222656 C 322.914062 170.136719 322.933594 166.558594 321.683594 163.523438 C 320.148438 160.90625 317.785156 159.453125 314.996094 158.390625 C 310.070312 157.582031 306.613281 158.824219 303.34375 162.628906 Z M 273.019531 87.691406 C 271.425781 90.09375 271.242188 91.980469 271.558594 94.820312 C 272.480469 97.433594 273.953125 99.222656 276.324219 100.648438 C 278.511719 101.585938 280.15625 101.769531 282.515625 101.410156 C 285.320312 100.191406 287.296875 98.15625 288.507812 95.351562 C 288.886719 92.910156 288.789062 90.777344 287.648438 88.5625 C 286.222656 86.652344 285.394531 85.730469 283.210938 84.753906 C 279.128906 84.210938 275.761719 84.285156 273.019531 87.691406 Z M 291.699219 76.015625 C 296.089844 79.339844 299.144531 83.472656 300.164062 88.992188 C 300.628906 95.410156 299.949219 100.90625 295.761719 106.027344 C 291.789062 110.359375 287.574219 113.070312 281.59375 113.425781 C 277.855469 113.535156 274.347656 113.019531 271.027344 111.242188 C 270.90625 111.539062 270.78125 111.835938 270.65625 112.140625 C 269.789062 113.683594 268.710938 114.730469 267.445312 115.96875 C 267.195312 116.214844 266.949219 116.460938 266.691406 116.710938 C 265.898438 117.496094 265.105469 118.277344 264.304688 119.054688 C 263.265625 120.078125 262.226562 121.101562 261.1875 122.125 C 260.933594 122.375 260.683594 122.625 260.421875 122.882812 C 258.699219 124.597656 257.09375 126.375 255.519531 128.222656 C 253.34375 130.679688 250.941406 132.933594 248.601562 135.234375 C 246.78125 137.039062 244.992188 138.84375 243.328125 140.796875 C 240.664062 143.894531 237.707031 146.714844 234.804688 149.582031 C 233.652344 150.722656 232.5 151.863281 231.347656 153.003906 C 231.085938 153.265625 230.820312 153.523438 230.550781 153.789062 C 228.746094 155.582031 228.058594 156.488281 228.007812 159.011719 C 227.996094 159.46875 227.988281 159.921875 227.976562 160.394531 C 227.96875 160.886719 227.960938 161.378906 227.949219 161.886719 C 227.9375 162.390625 227.925781 162.894531 227.917969 163.414062 C 227.882812 165.027344 227.851562 166.640625 227.820312 168.257812 C 227.796875 169.347656 227.773438 170.441406 227.75 171.535156 C 227.691406 174.214844 227.640625 176.898438 227.585938 179.582031 C 232.996094 180.105469 238.09375 179.332031 242.882812 177.257812 C 244.691406 175.515625 246.28125 173.613281 247.851562 171.652344 C 249.394531 169.851562 251.195312 168.382812 253.015625 166.867188 C 253.246094 166.601562 253.476562 166.332031 253.710938 166.058594 C 255.695312 163.960938 257.230469 163.460938 260.109375 163.328125 C 261.457031 163.328125 262.804688 163.34375 264.152344 163.375 C 264.875 163.382812 265.59375 163.386719 266.3125 163.390625 C 268.195312 163.402344 270.074219 163.433594 271.957031 163.46875 C 273.882812 163.5 275.808594 163.515625 277.730469 163.53125 C 281.5 163.566406 285.269531 163.621094 289.039062 163.6875 C 289.113281 163.191406 289.1875 162.695312 289.261719 162.1875 C 290.121094 157.449219 293.425781 152.945312 297.160156 150 C 302.785156 146.105469 309.246094 144.242188 316.019531 145.414062 C 322.453125 146.839844 327.285156 149.449219 331.417969 154.683594 C 335.539062 161.152344 336.691406 167.871094 335.09375 175.410156 C 333.542969 180.871094 330.238281 185.34375 325.589844 188.585938 C 323.699219 189.617188 321.78125 190.476562 319.765625 191.234375 C 319.277344 191.429688 318.785156 191.625 318.285156 191.820312 C 312.828125 193.335938 306.199219 192.859375 301.222656 190.175781 C 295.820312 187.019531 291.761719 182.871094 289.566406 176.929688 L 289.566406 174.8125 C 285.589844 174.738281 281.613281 174.714844 277.636719 174.71875 C 276.285156 174.714844 274.933594 174.703125 273.582031 174.675781 C 268.46875 174.3125 263.59375 174.945312 258.953125 176.574219 C 257.609375 178.046875 256.652344 179.445312 255.664062 181.167969 C 254.851562 182.183594 254.023438 183.191406 253.179688 184.183594 C 252.828125 184.621094 252.476562 185.0625 252.113281 185.511719 C 251.710938 186.003906 251.308594 186.492188 250.894531 186.996094 C 250.691406 187.363281 250.488281 187.730469 250.28125 188.105469 C 249.195312 189.785156 248.222656 191.007812 246.191406 191.453125 C 243.179688 191.769531 240.175781 191.617188 237.15625 191.5 C 233.996094 191.414062 230.839844 191.324219 227.585938 191.234375 L 227.585938 216.664062 C 231.53125 216.148438 235.476562 215.636719 239.539062 215.105469 C 246.816406 214.652344 253.234375 214.925781 258.964844 219.835938 C 263.027344 223.507812 266.683594 227.566406 270.132812 231.816406 C 273.664062 236.484375 277.964844 240.054688 283.039062 242.523438 C 286.335938 242.785156 289.691406 242.984375 292.746094 241.5625 C 293.949219 240.304688 294.808594 239.058594 295.683594 237.558594 C 297.9375 233.769531 301.847656 231.929688 305.929688 230.652344 C 311.660156 229.542969 317.105469 230.535156 321.980469 233.648438 C 326.222656 236.824219 328.964844 241.085938 329.828125 246.328125 C 330.429688 252.695312 329.09375 257.433594 325.1875 262.496094 C 321.429688 266.660156 316.261719 268.789062 310.722656 269.242188 C 303.648438 268.792969 298.980469 266.144531 294.242188 261.019531 C 292.839844 258.921875 292.027344 256.632812 291.15625 254.273438 C 290.738281 254.324219 290.316406 254.371094 289.890625 254.417969 C 281.453125 255.214844 275.648438 254.371094 272.484375 251.898438 C 269.480469 249.273438 266.863281 246.257812 264.367188 243.152344 C 263.363281 241.910156 262.339844 240.71875 261.28125 239.527344 C 260.011719 238.101562 258.875 236.644531 257.777344 235.082031 C 255.386719 231.941406 252.980469 229.363281 249.042969 228.386719 C 244.167969 227.761719 239.285156 227.886719 234.382812 228.050781 C 232.367188 228.109375 230.351562 228.121094 228.335938 228.136719 C 226.074219 228.15625 223.8125 228.179688 221.554688 228.242188 C 220.890625 228.257812 220.230469 228.273438 219.546875 228.292969 C 218.964844 228.308594 218.378906 228.324219 217.777344 228.34375 C 216.898438 228.324219 216.285156 228.140625 215.933594 227.785156 C 215.863281 226.828125 215.832031 225.863281 215.816406 224.902344 C 215.804688 224.273438 215.789062 223.648438 215.777344 223 C 215.765625 222.308594 215.757812 221.613281 215.746094 220.898438 C 215.734375 220.164062 215.71875 219.433594 215.707031 218.699219 C 215.59375 211.972656 215.527344 205.25 215.476562 198.523438 C 215.441406 194.003906 215.390625 189.488281 215.304688 184.96875 C 215.226562 181.023438 215.179688 177.082031 215.164062 173.140625 C 215.15625 171.054688 215.132812 168.96875 215.074219 166.886719 C 214.828125 157.316406 216.019531 151.097656 218.644531 148.234375 C 220.015625 146.972656 221.445312 145.835938 222.964844 144.757812 C 224.09375 143.929688 224.933594 142.992188 225.800781 141.898438 C 228.1875 139.089844 230.84375 136.535156 233.457031 133.9375 C 234.4375 132.964844 235.417969 131.988281 236.394531 131.011719 C 238.46875 128.945312 240.542969 126.882812 242.617188 124.816406 C 245.035156 122.414062 247.453125 120.007812 249.867188 117.597656 C 250.832031 116.636719 251.796875 115.675781 252.765625 114.71875 C 253.351562 114.132812 253.941406 113.546875 254.527344 112.957031 C 254.796875 112.691406 255.066406 112.425781 255.34375 112.148438 C 256.277344 111.230469 257.085938 110.21875 257.78125 109.121094 L 258.84375 109.121094 C 258.960938 108.828125 259.082031 108.53125 259.207031 108.230469 C 259.667969 107.414062 260.375 106.5625 261.324219 105.679688 C 261.730469 105.242188 262.132812 104.804688 262.550781 104.355469 C 262.476562 103.667969 262.300781 102.960938 262.019531 102.234375 C 261.894531 101.855469 261.769531 101.472656 261.640625 101.078125 C 261.503906 100.683594 261.367188 100.289062 261.226562 99.886719 C 259.234375 93.90625 259.621094 89.042969 262.019531 83.164062 C 264.730469 78.316406 269.351562 74.519531 274.621094 72.789062 C 280.71875 71.648438 286.554688 72.5625 291.699219 76.015625 Z M 291.699219 76.015625 " fill-opacity="1" fill-rule="nonzero"/></g></svg>