<svg xmlns="http://www.w3.org/2000/svg" xmlns:xlink="http://www.w3.org/1999/xlink" width="500" zoomAndPan="magnify" viewBox="0 0 375.12 383.03998" height="500" preserveAspectRatio="xMidYMid meet" version="1.0"><defs><clipPath id="913036a07c"><path d="M 37.4375 37.40625 L 336.6875 37.40625 L 336.6875 336.65625 L 37.4375 336.65625 Z M 37.4375 37.40625 " clip-rule="nonzero"/></clipPath></defs><path fill="#5e17eb" d="M 127.210938 296.757812 L 177.085938 296.757812 L 177.085938 286.78125 L 127.210938 286.78125 L 127.210938 296.757812 " fill-opacity="1" fill-rule="nonzero"/><path fill="#5e17eb" d="M 187.0625 296.757812 L 221.972656 296.757812 L 221.972656 286.78125 L 187.0625 286.78125 L 187.0625 296.757812 " fill-opacity="1" fill-rule="nonzero"/><path fill="#5e17eb" d="M 142.171875 256.855469 L 127.210938 256.855469 L 127.210938 266.832031 L 142.171875 266.832031 L 142.171875 256.855469 " fill-opacity="1" fill-rule="nonzero"/><path fill="#5e17eb" d="M 152.148438 266.832031 L 202.023438 266.832031 L 202.023438 256.855469 L 152.148438 256.855469 L 152.148438 266.832031 " fill-opacity="1" fill-rule="nonzero"/><path fill="#5e17eb" d="M 167.109375 226.929688 L 127.210938 226.929688 L 127.210938 236.90625 L 167.109375 236.90625 L 167.109375 226.929688 " fill-opacity="1" fill-rule="nonzero"/><path fill="#5e17eb" d="M 246.910156 187.03125 L 256.886719 187.03125 L 256.886719 177.054688 L 246.910156 177.054688 L 246.910156 187.03125 " fill-opacity="1" fill-rule="nonzero"/><path fill="#5e17eb" d="M 256.886719 147.132812 L 226.960938 147.132812 L 226.960938 157.105469 L 256.886719 157.105469 L 256.886719 147.132812 " fill-opacity="1" fill-rule="nonzero"/><g clip-path="url(#913036a07c)"><path fill="#5e17eb" d="M 122.222656 47.382812 C 163.476562 47.382812 197.035156 80.941406 197.035156 122.195312 C 197.035156 163.445312 163.476562 197.007812 122.222656 197.007812 C 80.972656 197.007812 47.410156 163.445312 47.410156 122.195312 C 47.410156 80.941406 80.972656 47.382812 122.222656 47.382812 Z M 225.75 82.292969 C 226.160156 82.292969 226.5625 82.324219 226.960938 82.375 L 226.960938 117.207031 C 226.960938 125.457031 233.671875 132.167969 241.921875 132.167969 L 256.886719 132.167969 L 256.886719 122.195312 L 241.921875 122.195312 C 239.175781 122.195312 236.9375 119.957031 236.9375 117.207031 L 236.9375 89.347656 L 273.914062 126.328125 C 275.796875 128.207031 276.835938 130.714844 276.835938 133.378906 L 276.835938 239.828125 L 225.5 188.492188 C 223.550781 186.542969 220.394531 186.542969 218.449219 188.492188 L 216.984375 189.953125 L 214.0625 187.03125 L 236.9375 187.03125 L 236.9375 177.054688 L 202.023438 177.054688 C 201.886719 177.054688 201.75 177.066406 201.617188 177.074219 L 193.144531 168.605469 C 195.539062 164.957031 197.667969 161.113281 199.484375 157.105469 L 216.984375 157.105469 L 216.984375 147.132812 L 203.265625 147.132812 C 205.699219 139.242188 207.011719 130.867188 207.011719 122.195312 C 207.011719 107.777344 203.390625 94.191406 197.015625 82.292969 Z M 314.671875 291.769531 L 291.796875 314.640625 L 199.101562 221.945312 L 221.972656 199.070312 Z M 321.972656 299.070312 C 325.027344 302.128906 326.710938 306.1875 326.710938 310.507812 C 326.710938 319.425781 319.457031 326.679688 310.539062 326.679688 C 306.21875 326.679688 302.15625 325 299.101562 321.945312 L 298.851562 321.695312 L 321.722656 298.820312 Z M 202.023438 189.097656 L 209.933594 197.007812 L 197.035156 209.902344 L 189.125 201.992188 Z M 183.320312 193.695312 L 176.71875 187.09375 C 180.480469 183.929688 183.960938 180.449219 187.121094 176.691406 L 193.722656 183.289062 Z M 276.835938 316.707031 C 276.835938 322.207031 272.359375 326.679688 266.859375 326.679688 L 117.234375 326.679688 C 111.738281 326.679688 107.261719 322.207031 107.261719 316.707031 L 107.261719 205.660156 C 112.121094 206.527344 117.121094 206.980469 122.222656 206.980469 C 139.34375 206.980469 155.289062 201.875 168.632812 193.113281 L 177.105469 201.585938 C 176.992188 202.996094 177.46875 204.445312 178.546875 205.519531 L 189.984375 216.957031 L 188.523438 218.417969 C 186.574219 220.367188 186.574219 223.523438 188.523438 225.46875 L 189.984375 226.929688 L 177.085938 226.929688 L 177.085938 236.90625 L 199.957031 236.90625 L 219.910156 256.855469 L 212 256.855469 L 212 266.832031 L 229.882812 266.832031 L 249.832031 286.78125 L 231.949219 286.78125 L 231.949219 296.757812 L 259.808594 296.757812 L 276.835938 313.785156 Z M 97.285156 203.234375 L 97.285156 316.707031 C 97.285156 327.707031 106.234375 336.65625 117.234375 336.65625 L 266.859375 336.65625 C 275.734375 336.65625 283.269531 330.832031 285.855469 322.804688 L 288.273438 325.21875 L 292.050781 328.996094 C 296.988281 333.9375 303.554688 336.65625 310.539062 336.65625 C 324.957031 336.65625 336.6875 324.929688 336.6875 310.507812 C 336.6875 303.523438 333.964844 296.957031 329.027344 292.019531 L 286.8125 249.804688 L 286.8125 133.378906 C 286.8125 128.050781 284.738281 123.042969 280.96875 119.269531 L 239.859375 78.160156 C 236.089844 74.394531 231.078125 72.320312 225.75 72.320312 L 190.746094 72.320312 C 175.3125 51.171875 150.347656 37.40625 122.222656 37.40625 C 75.472656 37.40625 37.4375 75.441406 37.4375 122.195312 C 37.4375 160.269531 62.664062 192.5625 97.285156 203.234375 " fill-opacity="1" fill-rule="nonzero"/></g><path fill="#5e17eb" d="M 122.222656 67.332031 C 141.441406 67.332031 158.378906 77.265625 168.183594 92.269531 L 102.273438 92.269531 C 91.273438 92.269531 82.324219 101.21875 82.324219 112.21875 L 82.324219 159.808594 C 73.050781 149.976562 67.359375 136.738281 67.359375 122.195312 C 67.359375 91.941406 91.972656 67.332031 122.222656 67.332031 Z M 177.085938 122.195312 C 177.085938 123.875 177.007812 125.539062 176.855469 127.179688 L 147.160156 127.179688 L 147.160156 137.15625 L 175.015625 137.15625 C 173.488281 142.519531 171.167969 147.554688 168.183594 152.117188 L 107.261719 152.117188 L 107.261719 162.09375 L 159.835938 162.09375 C 150.007812 171.363281 136.769531 177.054688 122.222656 177.054688 C 111.191406 177.054688 100.910156 173.78125 92.296875 168.152344 L 92.296875 112.21875 C 92.296875 106.71875 96.773438 102.242188 102.273438 102.242188 L 173.332031 102.242188 C 175.753906 108.429688 177.085938 115.15625 177.085938 122.195312 Z M 122.222656 187.03125 C 157.976562 187.03125 187.0625 157.945312 187.0625 122.195312 C 187.0625 86.441406 157.976562 57.355469 122.222656 57.355469 C 86.472656 57.355469 57.386719 86.441406 57.386719 122.195312 C 57.386719 157.945312 86.472656 187.03125 122.222656 187.03125 " fill-opacity="1" fill-rule="nonzero"/><path fill="#5e17eb" d="M 137.1875 127.179688 L 107.261719 127.179688 L 107.261719 137.15625 L 137.1875 137.15625 L 137.1875 127.179688 " fill-opacity="1" fill-rule="nonzero"/></svg>