<svg xmlns="http://www.w3.org/2000/svg" xmlns:xlink="http://www.w3.org/1999/xlink" width="500" zoomAndPan="magnify" viewBox="0 0 375.12 383.03998" height="500" preserveAspectRatio="xMidYMid meet" version="1.0"><defs><clipPath id="0c1783a59a"><path d="M 87.132812 311 L 281 311 L 281 336.414062 L 87.132812 336.414062 Z M 87.132812 311 " clip-rule="nonzero"/></clipPath><clipPath id="ce8557f097"><path d="M 258 37.40625 L 304 37.40625 L 304 95 L 258 95 Z M 258 37.40625 " clip-rule="nonzero"/></clipPath><clipPath id="7a11b42bad"><path d="M 295 91 L 328.832031 91 L 328.832031 134 L 295 134 Z M 295 91 " clip-rule="nonzero"/></clipPath><clipPath id="fb09e362b6"><path d="M 45.292969 75 L 79 75 L 79 118 L 45.292969 118 Z M 45.292969 75 " clip-rule="nonzero"/></clipPath></defs><path fill="#5e17eb" d="M 289.453125 149 L 289.453125 148.996094 C 285.96875 136.34375 280.246094 124.476562 272.445312 113.730469 C 266.28125 105.265625 259.003906 97.769531 250.8125 91.449219 C 236.375 80.324219 219.179688 72.929688 201.082031 70.082031 C 187.164062 67.878906 173.171875 68.367188 159.5 71.523438 C 145.160156 74.824219 131.808594 80.925781 119.816406 89.648438 C 109.800781 96.9375 101.179688 105.753906 94.195312 115.855469 C 84.949219 129.21875 78.714844 144.808594 76.171875 160.925781 C 73.300781 179.023438 75.039062 197.660156 81.191406 214.828125 C 84.679688 224.558594 89.566406 233.792969 95.726562 242.265625 C 98.167969 245.628906 100.785156 248.820312 103.558594 251.851562 C 103.644531 251.867188 103.734375 251.886719 103.832031 251.90625 C 104.957031 252.140625 107.046875 252.574219 110.425781 252.925781 C 111.867188 253.050781 113.335938 253.167969 114.816406 253.277344 C 109.882812 248.726562 105.378906 243.683594 101.367188 238.164062 C 95.601562 230.230469 91.019531 221.585938 87.757812 212.476562 C 81.996094 196.410156 80.371094 178.960938 83.058594 162.015625 C 85.441406 146.921875 91.277344 132.332031 99.929688 119.820312 C 106.46875 110.367188 114.539062 102.113281 123.917969 95.289062 C 135.148438 87.117188 147.648438 81.410156 161.066406 78.320312 C 168.617188 76.574219 176.273438 75.703125 183.957031 75.703125 C 189.296875 75.703125 194.652344 76.121094 199.996094 76.96875 C 216.941406 79.640625 233.042969 86.554688 246.554688 96.972656 C 254.222656 102.886719 261.035156 109.90625 266.800781 117.832031 C 274.109375 127.894531 279.472656 139.003906 282.734375 150.847656 C 286.605469 164.949219 287.40625 179.449219 285.117188 193.960938 C 283.0625 206.984375 278.59375 219.3125 271.847656 230.59375 C 266.777344 239.058594 260.582031 246.65625 253.351562 253.285156 C 254.886719 253.175781 256.398438 253.050781 257.890625 252.925781 C 261.269531 252.574219 263.359375 252.140625 264.480469 251.90625 C 264.523438 251.898438 264.558594 251.890625 264.597656 251.882812 C 269.582031 246.464844 274.011719 240.554688 277.828125 234.175781 C 285.039062 222.121094 289.808594 208.957031 292.003906 195.046875 C 294.449219 179.550781 293.59375 164.058594 289.453125 149 " fill-opacity="1" fill-rule="nonzero"/><path fill="#5e17eb" d="M 266.324219 260.15625 C 266.34375 259.722656 266.328125 259.328125 266.300781 258.988281 C 266.253906 258.503906 266.152344 257.371094 265.6875 256.3125 C 265.671875 256.28125 265.660156 256.257812 265.648438 256.230469 C 265.621094 256.164062 265.597656 256.105469 265.5625 256.058594 C 265.296875 255.507812 265.1875 255.300781 264.625 254.773438 C 264.46875 254.644531 262.226562 255.410156 256.875 255.964844 C 234.796875 257.859375 208.269531 258.144531 184.15625 258.3125 C 160.046875 258.144531 133.519531 257.859375 111.441406 255.964844 C 106.09375 255.410156 103.847656 254.644531 103.6875 254.773438 C 103.128906 255.300781 103.019531 255.507812 102.753906 256.058594 C 102.722656 256.105469 102.695312 256.164062 102.671875 256.230469 C 102.65625 256.257812 102.644531 256.28125 102.628906 256.3125 C 102.167969 257.371094 102.058594 258.503906 102.015625 258.988281 C 101.988281 259.328125 101.972656 259.722656 101.992188 260.15625 C 101.972656 260.78125 102.007812 261.5 102.148438 262.28125 L 104.140625 273.273438 C 104.207031 273.636719 105.230469 273.992188 107.15625 274.332031 C 109.09375 274.675781 111.949219 275.003906 115.667969 275.304688 C 135.835938 276.78125 158.679688 276.972656 179.9375 276.992188 C 181.335938 276.984375 182.746094 276.972656 184.15625 276.964844 C 185.574219 276.972656 186.980469 276.984375 188.378906 276.992188 C 209.636719 276.972656 232.484375 276.78125 252.648438 275.304688 C 256.367188 275.003906 259.222656 274.675781 261.164062 274.332031 C 263.089844 273.992188 264.109375 273.636719 264.175781 273.273438 L 266.167969 262.28125 C 266.308594 261.5 266.34375 260.78125 266.324219 260.15625 " fill-opacity="1" fill-rule="nonzero"/><path fill="#5e17eb" d="M 120.378906 312.722656 C 140.242188 313.925781 162.148438 314.628906 184.15625 314.730469 C 206.167969 314.628906 228.074219 313.925781 247.9375 312.722656 C 252.183594 312.4375 270.777344 311.148438 276.21875 309.082031 C 273.453125 300.917969 270.683594 292.746094 267.917969 284.578125 C 266.992188 281.769531 265.785156 278.101562 265.046875 275.863281 C 263.394531 276.3125 261.605469 276.460938 259.691406 276.734375 C 236.699219 279.066406 209.101562 279.394531 183.960938 279.570312 C 158.824219 279.394531 131.230469 279.066406 108.230469 276.734375 C 106.460938 276.480469 104.789062 276.332031 103.238281 275.957031 C 102.5 278.199219 101.3125 281.804688 100.402344 284.578125 C 97.632812 292.746094 94.863281 300.917969 92.097656 309.082031 C 97.539062 311.148438 116.132812 312.4375 120.378906 312.722656 " fill-opacity="1" fill-rule="nonzero"/><g clip-path="url(#0c1783a59a)"><path fill="#5e17eb" d="M 280.875 315.277344 C 280.734375 314.386719 280.445312 313.4375 280.046875 312.605469 C 279.394531 311.296875 277.375 311.066406 277.523438 311.347656 C 275.175781 313.84375 252.667969 315.40625 247.9375 315.71875 C 228.074219 316.925781 206.167969 317.625 184.15625 317.730469 C 162.148438 317.625 140.242188 316.925781 120.378906 315.71875 C 115.648438 315.40625 93.136719 313.84375 90.792969 311.347656 C 90.941406 311.066406 88.921875 311.296875 88.273438 312.605469 C 87.871094 313.4375 87.582031 314.386719 87.441406 315.277344 C 87.359375 316.035156 87.332031 329.367188 87.332031 329.367188 C 87.753906 331.445312 96.425781 332.480469 100.917969 333.113281 C 127.015625 336.054688 156.710938 336.472656 184.15625 336.410156 C 211.605469 336.472656 241.304688 336.054688 267.398438 333.113281 C 271.890625 332.480469 280.5625 331.445312 280.984375 329.367188 C 280.984375 329.367188 280.960938 316.035156 280.875 315.277344 " fill-opacity="1" fill-rule="nonzero"/></g><path fill="#5e17eb" d="M 145.496094 104.328125 C 139.320312 98.898438 124.511719 105.875 112.429688 119.917969 C 100.359375 133.964844 95.570312 149.746094 101.742188 155.175781 C 107.921875 160.617188 122.730469 153.636719 134.816406 139.59375 C 146.894531 125.550781 151.675781 109.753906 145.496094 104.328125 " fill-opacity="1" fill-rule="nonzero"/><path fill="#5e17eb" d="M 103.1875 162.386719 C 100.097656 161.222656 95.609375 165.5 93.160156 171.960938 C 90.703125 178.410156 91.222656 184.609375 94.300781 185.769531 C 97.382812 186.953125 101.871094 182.671875 104.332031 176.210938 C 106.789062 169.75 106.277344 163.5625 103.1875 162.386719 " fill-opacity="1" fill-rule="nonzero"/><path fill="#5e17eb" d="M 95.695312 191.222656 C 93.5 191.199219 91.671875 193.769531 91.589844 196.988281 C 91.519531 200.183594 93.238281 202.804688 95.425781 202.839844 C 97.617188 202.851562 99.460938 200.285156 99.527344 197.085938 C 99.601562 193.875 97.886719 191.265625 95.695312 191.222656 " fill-opacity="1" fill-rule="nonzero"/><g clip-path="url(#ce8557f097)"><path fill="#5e17eb" d="M 280.8125 94.332031 C 280.078125 94.332031 279.453125 93.808594 279.316406 93.089844 L 275.742188 73.851562 L 260.367188 78.539062 C 259.675781 78.746094 258.925781 78.441406 258.585938 77.800781 C 258.242188 77.160156 258.402344 76.371094 258.960938 75.910156 L 271.070312 65.984375 L 258.960938 56.058594 C 258.402344 55.597656 258.242188 54.804688 258.585938 54.167969 C 258.925781 53.527344 259.675781 53.21875 260.367188 53.429688 L 275.742188 58.113281 L 279.316406 38.878906 C 279.453125 38.15625 280.078125 37.636719 280.8125 37.636719 C 281.539062 37.636719 282.171875 38.15625 282.304688 38.878906 L 285.878906 58.113281 L 301.253906 53.429688 C 301.945312 53.21875 302.691406 53.527344 303.035156 54.167969 C 303.375 54.804688 303.21875 55.597656 302.660156 56.058594 L 290.550781 65.984375 L 302.660156 75.910156 C 303.21875 76.371094 303.375 77.160156 303.035156 77.800781 C 302.691406 78.441406 301.945312 78.75 301.253906 78.539062 L 285.878906 73.851562 L 282.304688 93.089844 C 282.171875 93.808594 281.539062 94.332031 280.8125 94.332031 " fill-opacity="1" fill-rule="nonzero"/></g><g clip-path="url(#7a11b42bad)"><path fill="#5e17eb" d="M 312.132812 133.601562 C 311.59375 133.601562 311.128906 133.214844 311.03125 132.6875 L 308.382812 118.457031 L 297.011719 121.917969 C 296.5 122.074219 295.945312 121.847656 295.695312 121.375 C 295.441406 120.902344 295.558594 120.316406 295.972656 119.976562 L 304.929688 112.636719 L 295.972656 105.289062 C 295.558594 104.953125 295.441406 104.367188 295.695312 103.894531 C 295.945312 103.421875 296.5 103.191406 297.011719 103.351562 L 308.382812 106.8125 L 311.03125 92.582031 C 311.128906 92.050781 311.59375 91.664062 312.132812 91.664062 C 312.675781 91.664062 313.136719 92.050781 313.238281 92.582031 L 315.882812 106.8125 L 327.257812 103.351562 C 327.769531 103.195312 328.320312 103.421875 328.574219 103.894531 C 328.824219 104.367188 328.710938 104.953125 328.296875 105.289062 L 319.339844 112.636719 L 328.296875 119.976562 C 328.710938 120.316406 328.824219 120.902344 328.574219 121.375 C 328.320312 121.847656 327.769531 122.078125 327.257812 121.917969 L 315.882812 118.457031 L 313.238281 132.6875 C 313.136719 133.214844 312.675781 133.601562 312.132812 133.601562 " fill-opacity="1" fill-rule="nonzero"/></g><g clip-path="url(#fb09e362b6)"><path fill="#5e17eb" d="M 61.988281 117.0625 C 61.449219 117.0625 60.984375 116.675781 60.882812 116.144531 L 58.238281 101.914062 L 46.867188 105.378906 C 46.351562 105.535156 45.804688 105.308594 45.550781 104.835938 C 45.296875 104.363281 45.410156 103.777344 45.828125 103.4375 L 54.785156 96.09375 L 45.828125 88.753906 C 45.410156 88.410156 45.296875 87.824219 45.550781 87.355469 C 45.804688 86.882812 46.351562 86.652344 46.867188 86.808594 L 58.238281 90.273438 L 60.882812 76.042969 C 60.984375 75.511719 61.449219 75.128906 61.988281 75.128906 C 62.527344 75.128906 62.992188 75.511719 63.09375 76.042969 L 65.738281 90.273438 L 77.109375 86.808594 C 77.625 86.652344 78.175781 86.882812 78.429688 87.355469 C 78.679688 87.824219 78.566406 88.410156 78.148438 88.753906 L 69.195312 96.09375 L 78.148438 103.4375 C 78.566406 103.777344 78.679688 104.363281 78.429688 104.835938 C 78.175781 105.308594 77.625 105.535156 77.109375 105.378906 L 65.738281 101.914062 L 63.09375 116.144531 C 62.992188 116.675781 62.527344 117.0625 61.988281 117.0625 " fill-opacity="1" fill-rule="nonzero"/></g></svg>